<svg width="40" height="40" viewBox="0 0 40 40" fill="none" xmlns="http://www.w3.org/2000/svg">
<g id="Logo" clip-path="url(#clip0_60533_53526)">
<path id="Vector" fill-rule="evenodd" clip-rule="evenodd" d="M20.0001 0C9.02691 0 0.0996094 8.97194 0.0996094 20C0.0996094 31.0281 9.02691 40 20.0001 40C30.9733 40 39.9006 31.0281 39.9006 20C39.9006 8.97194 30.9733 0 20.0001 0ZM20.0001 2.76957C26.57 2.77249 32.5619 6.54391 35.4325 12.483H21.3787V6.14328C20.4632 6.03693 19.5385 6.03693 18.6229 6.14328V12.483H4.57502C7.44449 6.5463 13.4329 2.77532 20.0001 2.76957ZM2.8554 20C2.8543 18.3943 3.07692 16.7963 3.51679 15.2526H18.6156C18.5539 20.0724 17.8807 27.7001 10.5922 34.3973C5.76574 31.2135 2.85782 25.8022 2.8554 20ZM13.1437 35.7888C16.8387 32.1669 18.8772 28.3028 20.0001 24.7267C21.123 28.3028 23.1616 32.1669 26.8624 35.7888C22.4874 37.7109 17.5128 37.7109 13.1378 35.7888H13.1437ZM29.4139 34.3973C22.1298 27.7001 21.4537 20.0694 21.3905 15.2526H36.4893C38.5516 22.5043 35.6819 30.2611 29.4065 34.3973H29.4139Z" fill="#424347"/>
</g>
<defs>
<clipPath id="clip0_60533_53526">
<rect width="40" height="40" fill="white"/>
</clipPath>
</defs>
</svg>
